<svg width="30" height="40" viewBox="0 0 30 40" fill="none" xmlns="http://www.w3.org/2000/svg">
<path d="M13.2345 21.7656C13.7188 22.2578 14.3595 22.5 15.0001 22.5C15.6407 22.5 16.2798 22.2558 16.7673 21.7676L29.2673 9.26756C30.2439 8.291 30.2439 6.70897 29.2673 5.73241C28.2907 4.75584 26.7087 4.75584 25.7321 5.73241L15.0001 16.4687L4.26807 5.7328C3.2915 4.75623 1.70947 4.75623 0.73291 5.7328C-0.243652 6.70936 -0.243652 8.29139 0.73291 9.26795L13.2345 21.7656ZM25.7345 20.7344L15.0001 31.4687L4.26807 20.7344C3.2915 19.7578 1.70947 19.7578 0.73291 20.7344C-0.243652 21.7109 -0.243652 23.293 0.73291 24.2695L13.2329 36.7695C13.7188 37.2578 14.3595 37.5 15.0001 37.5C15.6407 37.5 16.2798 37.2558 16.7673 36.7676L29.2673 24.2676C30.2439 23.291 30.2439 21.709 29.2673 20.7324C28.2907 19.7558 26.711 19.7578 25.7345 20.7344Z" fill="#F2F4F7"/>
</svg>
