<svg width="100" height="80" viewBox="0 0 100 80" fill="none" xmlns="http://www.w3.org/2000/svg">
<g clip-path="url(#clip0_85_253)">
<path d="M64.8125 6.37344L44.8125 76.375C44.0469 79.0312 41.2812 80.5625 38.625 79.8125C35.9688 79.0469 34.4375 76.2812 35.1875 73.625L55.1875 3.62656C55.9531 0.971249 58.7188 -0.566251 61.375 0.192499C64.0312 0.951093 65.5625 3.71875 64.8125 6.37344ZM81.0312 18.9688L98.5312 36.4688C100.484 38.4219 100.484 41.5781 98.5312 43.5312L81.0312 61.0312C79.0781 62.9844 75.9219 62.9844 73.9688 61.0312C72.0156 59.0781 72.0156 55.9219 73.9688 53.9688L87.9219 40L73.9688 26.0312C72.0156 24.0781 72.0156 20.9219 73.9688 18.9688C75.9219 17.0156 79.0781 17.0156 81.0312 18.9688ZM26.0312 26.0312L12.0703 40L26.0312 53.9688C27.9844 55.9219 27.9844 59.0781 26.0312 61.0312C24.0781 62.9844 20.9219 62.9844 18.9688 61.0312L1.46438 43.5312C-0.488125 41.5781 -0.488125 38.4219 1.46438 36.4688L18.9688 18.9688C20.9219 17.0156 24.0781 17.0156 26.0312 18.9688C27.9844 20.9219 27.9844 24.0781 26.0312 26.0312Z" fill="url(#paint0_linear_85_253)"/>
</g>
<defs>
<linearGradient id="paint0_linear_85_253" x1="50" y1="23.1999" x2="110.8" y2="93.6" gradientUnits="userSpaceOnUse">
<stop stop-color="#FC0085"/>
<stop offset="1" stop-color="#0000FC"/>
</linearGradient>
<clipPath id="clip0_85_253">
<rect width="100" height="80" fill="white"/>
</clipPath>
</defs>
</svg>
