<svg width="117" height="50" viewBox="0 0 117 50" fill="none" xmlns="http://www.w3.org/2000/svg">
<rect x="0.5" y="0.5" width="116" height="49" rx="24.5" stroke="url(#paint0_linear_77_378)"/>
<path d="M28.072 28.002V30H20.449V16.986H22.87V28.002H28.072ZM33.061 20.622C33.745 20.622 34.366 20.733 34.924 20.955C35.488 21.177 35.968 21.492 36.364 21.9C36.766 22.308 37.075 22.806 37.291 23.394C37.507 23.982 37.615 24.639 37.615 25.365C37.615 26.097 37.507 26.757 37.291 27.345C37.075 27.933 36.766 28.434 36.364 28.848C35.968 29.262 35.488 29.58 34.924 29.802C34.366 30.024 33.745 30.135 33.061 30.135C32.371 30.135 31.744 30.024 31.18 29.802C30.616 29.58 30.133 29.262 29.731 28.848C29.335 28.434 29.026 27.933 28.804 27.345C28.588 26.757 28.48 26.097 28.48 25.365C28.48 24.639 28.588 23.982 28.804 23.394C29.026 22.806 29.335 22.308 29.731 21.9C30.133 21.492 30.616 21.177 31.18 20.955C31.744 20.733 32.371 20.622 33.061 20.622ZM33.061 28.425C33.829 28.425 34.396 28.167 34.762 27.651C35.134 27.135 35.32 26.379 35.32 25.383C35.32 24.387 35.134 23.628 34.762 23.106C34.396 22.584 33.829 22.323 33.061 22.323C32.281 22.323 31.702 22.587 31.324 23.115C30.952 23.637 30.766 24.393 30.766 25.383C30.766 26.373 30.952 27.129 31.324 27.651C31.702 28.167 32.281 28.425 33.061 28.425ZM49.4838 23.124C49.2378 22.818 48.9648 22.602 48.6648 22.476C48.3648 22.35 48.0438 22.287 47.7018 22.287C47.3658 22.287 47.0628 22.35 46.7928 22.476C46.5228 22.602 46.2918 22.794 46.0998 23.052C45.9078 23.304 45.7608 23.628 45.6588 24.024C45.5568 24.414 45.5058 24.876 45.5058 25.41C45.5058 25.95 45.5478 26.409 45.6318 26.787C45.7218 27.159 45.8478 27.465 46.0098 27.705C46.1718 27.939 46.3698 28.11 46.6038 28.218C46.8378 28.32 47.0988 28.371 47.3868 28.371C47.8488 28.371 48.2418 28.275 48.5658 28.083C48.8898 27.891 49.1958 27.618 49.4838 27.264V23.124ZM51.7068 20.766V33.015H49.4838V28.83C49.1178 29.22 48.7038 29.535 48.2418 29.775C47.7798 30.015 47.2428 30.135 46.6308 30.135C46.1268 30.135 45.6648 30.03 45.2448 29.82C44.8248 29.61 44.4618 29.307 44.1558 28.911C43.8558 28.509 43.6218 28.014 43.4538 27.426C43.2918 26.838 43.2108 26.166 43.2108 25.41C43.2108 24.726 43.3038 24.09 43.4898 23.502C43.6758 22.914 43.9428 22.404 44.2908 21.972C44.6388 21.54 45.0558 21.204 45.5418 20.964C46.0278 20.718 46.5738 20.595 47.1798 20.595C47.7558 20.595 48.2388 20.694 48.6288 20.892C49.0188 21.09 49.3668 21.357 49.6728 21.693L49.7898 21.171C49.8678 20.901 50.0538 20.766 50.3478 20.766H51.7068ZM61.8567 20.766V30H60.4977C60.2037 30 60.0177 29.865 59.9397 29.595L59.7867 28.857C59.4087 29.241 58.9917 29.553 58.5357 29.793C58.0797 30.027 57.5427 30.144 56.9247 30.144C56.4207 30.144 55.9737 30.06 55.5837 29.892C55.1997 29.718 54.8757 29.475 54.6117 29.163C54.3477 28.851 54.1467 28.482 54.0087 28.056C53.8767 27.624 53.8107 27.15 53.8107 26.634V20.766H56.0337V26.634C56.0337 27.198 56.1627 27.636 56.4207 27.948C56.6847 28.254 57.0777 28.407 57.5997 28.407C57.9837 28.407 58.3437 28.323 58.6797 28.155C59.0157 27.981 59.3337 27.744 59.6337 27.444V20.766H61.8567ZM66.3649 20.766V30H64.1329V20.766H66.3649ZM66.6709 18.075C66.6709 18.267 66.6319 18.447 66.5539 18.615C66.4759 18.783 66.3709 18.93 66.2389 19.056C66.1129 19.182 65.9629 19.284 65.7889 19.362C65.6149 19.434 65.4289 19.47 65.2309 19.47C65.0389 19.47 64.8559 19.434 64.6819 19.362C64.5139 19.284 64.3669 19.182 64.2409 19.056C64.1149 18.93 64.0129 18.783 63.9349 18.615C63.8629 18.447 63.8269 18.267 63.8269 18.075C63.8269 17.877 63.8629 17.691 63.9349 17.517C64.0129 17.343 64.1149 17.193 64.2409 17.067C64.3669 16.941 64.5139 16.842 64.6819 16.77C64.8559 16.692 65.0389 16.653 65.2309 16.653C65.4289 16.653 65.6149 16.692 65.7889 16.77C65.9629 16.842 66.1129 16.941 66.2389 17.067C66.3709 17.193 66.4759 17.343 66.5539 17.517C66.6319 17.691 66.6709 17.877 66.6709 18.075ZM74.5802 24.321C74.5802 24.033 74.5382 23.763 74.4542 23.511C74.3762 23.253 74.2562 23.028 74.0942 22.836C73.9322 22.644 73.7252 22.494 73.4732 22.386C73.2272 22.272 72.9392 22.215 72.6092 22.215C71.9672 22.215 71.4602 22.398 71.0882 22.764C70.7222 23.13 70.4882 23.649 70.3862 24.321H74.5802ZM70.3412 25.662C70.3772 26.136 70.4612 26.547 70.5932 26.895C70.7252 27.237 70.8992 27.522 71.1152 27.75C71.3312 27.972 71.5862 28.14 71.8802 28.254C72.1802 28.362 72.5102 28.416 72.8702 28.416C73.2302 28.416 73.5392 28.374 73.7972 28.29C74.0612 28.206 74.2892 28.113 74.4812 28.011C74.6792 27.909 74.8502 27.816 74.9942 27.732C75.1442 27.648 75.2882 27.606 75.4262 27.606C75.6122 27.606 75.7502 27.675 75.8402 27.813L76.4792 28.623C76.2332 28.911 75.9572 29.154 75.6512 29.352C75.3452 29.544 75.0242 29.7 74.6882 29.82C74.3582 29.934 74.0192 30.015 73.6712 30.063C73.3292 30.111 72.9962 30.135 72.6722 30.135C72.0302 30.135 71.4332 30.03 70.8812 29.82C70.3292 29.604 69.8492 29.289 69.4412 28.875C69.0332 28.455 68.7122 27.939 68.4782 27.327C68.2442 26.709 68.1272 25.995 68.1272 25.185C68.1272 24.555 68.2292 23.964 68.4332 23.412C68.6372 22.854 68.9282 22.371 69.3062 21.963C69.6902 21.549 70.1552 21.222 70.7012 20.982C71.2532 20.742 71.8742 20.622 72.5642 20.622C73.1462 20.622 73.6832 20.715 74.1752 20.901C74.6672 21.087 75.0902 21.36 75.4442 21.72C75.7982 22.074 76.0742 22.512 76.2722 23.034C76.4762 23.55 76.5782 24.141 76.5782 24.807C76.5782 25.143 76.5422 25.371 76.4702 25.491C76.3982 25.605 76.2602 25.662 76.0562 25.662H70.3412ZM80.3434 22.368C80.6314 21.816 80.9734 21.384 81.3694 21.072C81.7654 20.754 82.2334 20.595 82.7734 20.595C83.1994 20.595 83.5414 20.688 83.7994 20.874L83.6554 22.539C83.6254 22.647 83.5804 22.725 83.5204 22.773C83.4664 22.815 83.3914 22.836 83.2954 22.836C83.2054 22.836 83.0704 22.821 82.8904 22.791C82.7164 22.761 82.5454 22.746 82.3774 22.746C82.1314 22.746 81.9124 22.782 81.7204 22.854C81.5284 22.926 81.3544 23.031 81.1984 23.169C81.0484 23.301 80.9134 23.463 80.7934 23.655C80.6794 23.847 80.5714 24.066 80.4694 24.312V30H78.2464V20.766H79.5514C79.7794 20.766 79.9384 20.808 80.0284 20.892C80.1184 20.97 80.1784 21.114 80.2084 21.324L80.3434 22.368ZM88.7836 20.622C89.4676 20.622 90.0886 20.733 90.6466 20.955C91.2106 21.177 91.6906 21.492 92.0866 21.9C92.4886 22.308 92.7976 22.806 93.0136 23.394C93.2296 23.982 93.3376 24.639 93.3376 25.365C93.3376 26.097 93.2296 26.757 93.0136 27.345C92.7976 27.933 92.4886 28.434 92.0866 28.848C91.6906 29.262 91.2106 29.58 90.6466 29.802C90.0886 30.024 89.4676 30.135 88.7836 30.135C88.0936 30.135 87.4666 30.024 86.9026 29.802C86.3386 29.58 85.8556 29.262 85.4536 28.848C85.0576 28.434 84.7486 27.933 84.5266 27.345C84.3106 26.757 84.2026 26.097 84.2026 25.365C84.2026 24.639 84.3106 23.982 84.5266 23.394C84.7486 22.806 85.0576 22.308 85.4536 21.9C85.8556 21.492 86.3386 21.177 86.9026 20.955C87.4666 20.733 88.0936 20.622 88.7836 20.622ZM88.7836 28.425C89.5516 28.425 90.1186 28.167 90.4846 27.651C90.8566 27.135 91.0426 26.379 91.0426 25.383C91.0426 24.387 90.8566 23.628 90.4846 23.106C90.1186 22.584 89.5516 22.323 88.7836 22.323C88.0036 22.323 87.4246 22.587 87.0466 23.115C86.6746 23.637 86.4886 24.393 86.4886 25.383C86.4886 26.373 86.6746 27.129 87.0466 27.651C87.4246 28.167 88.0036 28.425 88.7836 28.425ZM97.5175 16.986V22.134C97.5175 22.68 97.4905 23.217 97.4365 23.745C97.3825 24.267 97.3135 24.822 97.2295 25.41H95.7175C95.6335 24.822 95.5645 24.267 95.5105 23.745C95.4565 23.217 95.4295 22.68 95.4295 22.134V16.986H97.5175ZM95.0785 28.776C95.0785 28.59 95.1115 28.413 95.1775 28.245C95.2495 28.077 95.3455 27.933 95.4655 27.813C95.5915 27.693 95.7385 27.597 95.9065 27.525C96.0745 27.453 96.2545 27.417 96.4465 27.417C96.6325 27.417 96.8095 27.453 96.9775 27.525C97.1455 27.597 97.2895 27.693 97.4095 27.813C97.5355 27.933 97.6345 28.077 97.7065 28.245C97.7785 28.413 97.8145 28.59 97.8145 28.776C97.8145 28.968 97.7785 29.148 97.7065 29.316C97.6345 29.478 97.5355 29.619 97.4095 29.739C97.2895 29.859 97.1455 29.952 96.9775 30.018C96.8095 30.09 96.6325 30.126 96.4465 30.126C96.2545 30.126 96.0745 30.09 95.9065 30.018C95.7385 29.952 95.5915 29.859 95.4655 29.739C95.3455 29.619 95.2495 29.478 95.1775 29.316C95.1115 29.148 95.0785 28.968 95.0785 28.776Z" fill="#F2F4F7"/>
<defs>
<linearGradient id="paint0_linear_77_378" x1="1.61433e-06" y1="44.7115" x2="111.889" y2="16.1905" gradientUnits="userSpaceOnUse">
<stop stop-color="#FC0085"/>
<stop offset="0.533914" stop-color="#009DFF"/>
<stop offset="1" stop-color="#0DFFFC"/>
</linearGradient>
</defs>
</svg>
