<svg width="120" height="96" viewBox="0 0 120 96" fill="none" xmlns="http://www.w3.org/2000/svg">
<path d="M0 71.9813L12 71.9888C15.3281 71.9888 18 69.3095 18 65.9832V24.0563H0V71.9813ZM9 60.0188C10.6406 60.0188 12 61.3534 12 63.0169C12 64.656 10.6406 66.015 9 66.015C7.35938 66.015 6 64.65 6 63.0188C6 61.35 7.35938 60.0188 9 60.0188ZM65.4 12C63.9111 12 62.4637 12.5567 61.365 13.5615L42.9187 30.4313C42.9 30.4688 42.9 30.5063 42.8625 30.5063C39.75 33.4313 39.8063 38.1 42.4688 41.0063C44.8594 43.4625 49.8525 44.31 52.9931 41.5219C53.025 41.4938 53.0438 41.4938 53.0625 41.475L68.04 27.7688C69.2588 26.6679 71.1806 26.7383 72.2812 27.9563C73.4062 29.1743 73.3125 31.0725 72.0938 32.1975L67.1963 36.6731L94.5 58.8188C95.0391 59.2868 95.5312 59.7555 95.9766 60.2704V23.8313C88.2928 16.1513 77.8866 11.8538 67.0266 11.8538L65.4 12ZM62.7375 40.7625L57.1125 45.9169C51.5344 51 43.0031 50.5088 38.025 45.0973C33 39.6 33.3937 31.0688 38.8688 26.0438L54.2063 12H52.9688C42.1312 12 31.7062 16.3275 24.0375 23.9813L24 65.9625L27.4219 65.9694L44.3906 81.3107C49.5469 85.5051 57.0938 84.7082 61.2656 79.5771L64.6631 82.4346C67.6406 84.7033 72.0469 84.4033 74.4844 81.4275L80.3681 74.19L81.3757 75.0334C83.9539 77.0959 87.7282 76.7212 89.8132 74.1431L91.6016 71.9344C93.6866 69.3562 93.2959 65.6006 90.7215 63.51L62.7375 40.7625ZM102 24.075V66C102 69.3038 104.672 72.0094 107.831 72.0094L120 72V24.0188L102 24.075ZM111 66C109.359 66 108 64.6414 108 63.0019C108 61.3378 109.359 60.0038 111 60.0038C112.641 60.0038 114 61.35 114 63.0188C114 64.65 112.65 66 111 66Z" fill="url(#paint0_linear_85_267)"/>
<defs>
<linearGradient id="paint0_linear_85_267" x1="-2.9095e-06" y1="12" x2="120" y2="84" gradientUnits="userSpaceOnUse">
<stop stop-color="#9300BF"/>
<stop offset="1" stop-color="#0DFFFC"/>
</linearGradient>
</defs>
</svg>
