<svg width="131" height="25" viewBox="0 0 131 25" fill="none" xmlns="http://www.w3.org/2000/svg">
<path d="M0.703125 24V21.2314L2.97363 20.7188V5.98242L0.703125 5.45508V2.67188H2.97363H10.3711C12.2852 2.67188 13.9746 3.12109 15.4395 4.01953C16.9043 4.9082 18.0518 6.14355 18.8818 7.72559C19.7119 9.29785 20.127 11.1094 20.127 13.1602V13.5264C20.127 15.5674 19.7168 17.3789 18.8965 18.9609C18.0762 20.5332 16.9336 21.7686 15.4688 22.667C14.0039 23.5557 12.3145 24 10.4004 24H0.703125ZM7.66113 20.4404H10.1514C11.2939 20.4404 12.251 20.1475 13.0225 19.5615C13.8037 18.9756 14.3945 18.165 14.7949 17.1299C15.2051 16.085 15.4102 14.8838 15.4102 13.5264V13.1455C15.4102 11.7783 15.2051 10.5771 14.7949 9.54199C14.3945 8.50684 13.8037 7.70117 13.0225 7.125C12.251 6.53906 11.2939 6.24609 10.1514 6.24609H7.66113V20.4404ZM21.9434 24V21.2314L23.9062 20.7773V11.3877L21.665 10.9336V8.15039H28.5938V20.7773L30.5566 21.2314V24H21.9434ZM23.7598 4.97168V1.14844H28.5938V4.97168H23.7598ZM38.7158 24.3076C37.5049 24.3076 36.3721 24.1953 35.3174 23.9707C34.2725 23.7461 33.3008 23.4287 32.4023 23.0186L32.3438 18.3164H35.5518L36.1377 20.6016C36.4111 20.748 36.7285 20.8701 37.0898 20.9678C37.4512 21.0654 37.8711 21.1143 38.3496 21.1143C39.248 21.1143 39.873 20.9775 40.2246 20.7041C40.5762 20.4307 40.752 20.0938 40.752 19.6934C40.752 19.3027 40.5566 18.9512 40.166 18.6387C39.7754 18.3262 38.9795 18.0576 37.7783 17.833C35.9131 17.4521 34.5361 16.8418 33.6475 16.002C32.7686 15.1523 32.3291 14.0781 32.3291 12.7793C32.3291 11.9004 32.5439 11.0947 32.9736 10.3623C33.4033 9.62012 34.0771 9.02441 34.9951 8.5752C35.9229 8.11621 37.1289 7.88672 38.6133 7.88672C39.8047 7.88672 40.918 7.99902 41.9531 8.22363C42.9883 8.43848 43.8477 8.7168 44.5312 9.05859L44.5459 13.5996H41.3525L40.8984 11.5488C40.6543 11.373 40.3711 11.2412 40.0488 11.1533C39.7266 11.0557 39.3652 11.0068 38.9648 11.0068C38.2617 11.0068 37.7295 11.1436 37.3682 11.417C37.0166 11.6904 36.8408 12.0371 36.8408 12.457C36.8408 12.7012 36.9092 12.9404 37.0459 13.1748C37.1924 13.3994 37.4658 13.6143 37.8662 13.8193C38.2666 14.0146 38.8574 14.2002 39.6387 14.376C41.5332 14.7959 42.9297 15.3721 43.8281 16.1045C44.7363 16.8369 45.1904 17.9014 45.1904 19.2979C45.1904 20.8115 44.6436 22.0273 43.5498 22.9453C42.4561 23.8535 40.8447 24.3076 38.7158 24.3076ZM54.7119 24.3076C53.1787 24.3076 51.8408 23.9756 50.6982 23.3115C49.5557 22.6377 48.667 21.7197 48.0322 20.5576C47.4072 19.3857 47.0947 18.0576 47.0947 16.5732V16.002C47.0947 14.4199 47.3828 13.0137 47.959 11.7832C48.5352 10.5527 49.3652 9.59082 50.4492 8.89746C51.5332 8.19434 52.832 7.84766 54.3457 7.85742C55.7812 7.85742 56.9922 8.13574 57.9785 8.69238C58.9648 9.24902 59.7119 10.0645 60.2197 11.1387C60.7373 12.2031 60.9961 13.502 60.9961 15.0352V17.5254H51.958L51.9434 17.6133C52.002 18.2188 52.168 18.7559 52.4414 19.2246C52.7246 19.6836 53.1104 20.0498 53.5986 20.3232C54.0967 20.5967 54.7021 20.7334 55.415 20.7334C56.1475 20.7334 56.8408 20.6455 57.4951 20.4697C58.1592 20.2939 58.8281 20.0205 59.502 19.6494L60.6738 22.5059C59.9902 23.0234 59.1406 23.4531 58.125 23.7949C57.1191 24.1367 55.9814 24.3076 54.7119 24.3076ZM51.9727 14.5225H56.6602V14.1416C56.6602 13.5361 56.5869 13.0234 56.4404 12.6035C56.3037 12.1738 56.0693 11.8467 55.7373 11.6221C55.415 11.3975 54.9854 11.2852 54.4482 11.2852C53.9014 11.2852 53.4521 11.4219 53.1006 11.6953C52.749 11.9688 52.4805 12.3447 52.2949 12.8232C52.1191 13.3018 51.9971 13.8438 51.9287 14.4492L51.9727 14.5225ZM62.6807 24V21.2314L64.6436 20.7773V11.3877L62.4023 10.9336V8.15039H69.0381L69.2285 10.3916C69.7559 9.59082 70.4053 8.9707 71.1768 8.53125C71.9482 8.08203 72.8271 7.85742 73.8135 7.85742C75.3369 7.85742 76.5381 8.36035 77.417 9.36621C78.2959 10.3721 78.7354 11.959 78.7354 14.127V20.7773L80.6836 21.2314V24H72.3486V21.2314L74.0332 20.7773V14.127C74.0332 13.1699 73.8379 12.4912 73.4473 12.0908C73.0664 11.6807 72.5098 11.4756 71.7773 11.4756C71.2305 11.4756 70.752 11.5879 70.3418 11.8125C69.9414 12.0273 69.6045 12.3398 69.3311 12.75V20.7773L70.8545 21.2314V24H62.6807ZM68.335 5.29395L65.918 4.64941C65.918 3.97559 66.0791 3.35547 66.4014 2.78906C66.7236 2.21289 67.1436 1.75391 67.6611 1.41211C68.1787 1.07031 68.7402 0.899414 69.3457 0.899414C69.8242 0.899414 70.3174 1.0166 70.8252 1.25098C71.3428 1.47559 71.8311 1.70508 72.29 1.93945C72.749 2.17383 73.1396 2.2959 73.4619 2.30566C73.8623 2.28613 74.1748 2.12988 74.3994 1.83691C74.624 1.54395 74.7363 1.17285 74.7363 0.723633L77.1387 1.39746C77.1387 2.08105 76.9775 2.70605 76.6553 3.27246C76.3428 3.83887 75.9229 4.29297 75.3955 4.63477C74.8779 4.9668 74.3115 5.13281 73.6963 5.13281C73.1787 5.13281 72.666 5.01562 72.1582 4.78125C71.6504 4.54688 71.1768 4.3125 70.7373 4.07812C70.2979 3.84375 69.9121 3.72656 69.5801 3.72656C69.1699 3.72656 68.8574 3.88281 68.6426 4.19531C68.4375 4.49805 68.335 4.86426 68.335 5.29395ZM89.2676 24.3076C87.7246 24.3076 86.3916 23.9658 85.2686 23.2822C84.1553 22.5889 83.2959 21.6416 82.6904 20.4404C82.0947 19.2295 81.7969 17.8477 81.7969 16.2949V15.8994C81.7969 14.3271 82.1045 12.9355 82.7197 11.7246C83.335 10.5137 84.1992 9.56641 85.3125 8.88281C86.4258 8.19922 87.7344 7.85742 89.2383 7.85742C90.7031 7.85742 91.9629 8.08203 93.0176 8.53125C94.0723 8.98047 94.917 9.47852 95.5518 10.0254L95.4932 14.7861H91.9775L91.3916 11.9297C91.1963 11.7344 90.9375 11.5732 90.6152 11.4463C90.293 11.3193 89.9902 11.2559 89.707 11.2559C88.9453 11.2559 88.3252 11.4365 87.8467 11.7979C87.3779 12.1494 87.0312 12.667 86.8066 13.3506C86.5918 14.0342 86.4844 14.8838 86.4844 15.8994V16.2949C86.4844 17.3594 86.6162 18.2188 86.8799 18.873C87.1436 19.5176 87.4902 19.9912 87.9199 20.2939C88.3594 20.5869 88.8232 20.7334 89.3115 20.7334C90.0049 20.7334 90.5469 20.5576 90.9375 20.2061C91.3379 19.8447 91.626 19.332 91.8018 18.668H95.7715L95.8301 18.7559C95.625 19.9473 95.2734 20.958 94.7754 21.7881C94.2871 22.6084 93.5986 23.2334 92.71 23.6631C91.8213 24.0928 90.6738 24.3076 89.2676 24.3076ZM97.5293 24V21.2314L99.4922 20.7773V11.3877L97.251 10.9336V8.15039H104.18V20.7773L106.143 21.2314V24H97.5293ZM99.3457 4.97168V1.14844H104.18V4.97168H99.3457ZM115.078 24.3076C113.477 24.3076 112.104 23.9707 110.962 23.2969C109.829 22.6133 108.96 21.666 108.354 20.4551C107.759 19.2344 107.461 17.8232 107.461 16.2217V15.9287C107.461 14.3467 107.759 12.9502 108.354 11.7393C108.96 10.5283 109.829 9.58105 110.962 8.89746C112.095 8.2041 113.457 7.85742 115.049 7.85742C116.641 7.85742 118.003 8.19922 119.136 8.88281C120.269 9.56641 121.133 10.5137 121.729 11.7246C122.334 12.9355 122.637 14.3369 122.637 15.9287V16.2217C122.637 17.8135 122.334 19.2197 121.729 20.4404C121.133 21.6514 120.269 22.5986 119.136 23.2822C118.013 23.9658 116.66 24.3076 115.078 24.3076ZM115.078 20.7334C115.762 20.7334 116.313 20.5479 116.733 20.1768C117.163 19.8057 117.476 19.2832 117.671 18.6094C117.876 17.9355 117.979 17.1396 117.979 16.2217V15.9287C117.979 15.04 117.876 14.2637 117.671 13.5996C117.476 12.9258 117.163 12.3984 116.733 12.0176C116.304 11.6367 115.742 11.4463 115.049 11.4463C114.365 11.4463 113.809 11.6367 113.379 12.0176C112.949 12.3984 112.637 12.9258 112.441 13.5996C112.246 14.2637 112.148 15.04 112.148 15.9287V16.2217C112.148 17.1396 112.246 17.9404 112.441 18.624C112.637 19.2979 112.949 19.8203 113.379 20.1914C113.809 20.5527 114.375 20.7334 115.078 20.7334ZM125.391 24V20.0156H130.063V24H125.391Z" fill="#F2F4F7"/>
</svg>
