<svg width="100" height="89" viewBox="0 0 100 89" fill="none" xmlns="http://www.w3.org/2000/svg">
<g clip-path="url(#clip0_85_247)">
<path d="M38.889 45.7479C38.9237 40.5354 41.389 35.6531 45.5557 32.5256L86.6494 1.66885C89.8786 -0.756323 94.3751 -0.515161 97.3439 2.24135C100.295 4.997 100.833 9.47622 98.646 12.8695L70.573 56.3117C67.9341 60.4122 63.6459 63.1053 58.9064 63.7829L38.889 45.7479ZM55.5557 69.4992C55.5557 80.2542 46.8577 88.959 36.1112 88.959H11.1112C8.04351 88.959 5.55566 86.4744 5.55566 83.3991C5.55566 80.3237 8.04351 77.8391 11.1112 77.8391H11.9463C15.0071 77.8391 17.0834 74.5553 16.7692 71.5147C16.7015 70.8545 16.6668 70.1768 16.6668 69.4992C16.6668 59.0048 24.9827 50.4391 35.3647 50.0568L55.5209 68.1961C55.5383 68.4741 55.5557 69.0649 55.5557 69.4992Z" fill="url(#paint0_linear_85_247)"/>
</g>
<defs>
<linearGradient id="paint0_linear_85_247" x1="52.7696" y1="0" x2="52.7696" y2="88.959" gradientUnits="userSpaceOnUse">
<stop stop-color="#009DFF"/>
<stop offset="1" stop-color="#0DFFFC"/>
</linearGradient>
<clipPath id="clip0_85_247">
<rect width="100" height="88.959" fill="white"/>
</clipPath>
</defs>
</svg>
