<svg width="100" height="52" viewBox="0 0 100 52" fill="none" xmlns="http://www.w3.org/2000/svg">
<rect x="0.5" y="0.5" width="99" height="51" rx="25.5" stroke="url(#paint0_linear_57_481)"/>
<path d="M33.6 19.986L28.344 33H26.157L20.901 19.986H22.845C23.055 19.986 23.226 20.037 23.358 20.139C23.49 20.241 23.589 20.373 23.655 20.535L26.724 28.473C26.826 28.731 26.922 29.016 27.012 29.328C27.108 29.634 27.198 29.955 27.282 30.291C27.354 29.955 27.432 29.634 27.516 29.328C27.6 29.016 27.693 28.731 27.795 28.473L30.846 20.535C30.894 20.397 30.987 20.271 31.125 20.157C31.269 20.043 31.443 19.986 31.647 19.986H33.6ZM38.103 29.058C37.461 29.088 36.921 29.145 36.483 29.229C36.045 29.307 35.694 29.409 35.43 29.535C35.166 29.661 34.977 29.808 34.863 29.976C34.749 30.144 34.692 30.327 34.692 30.525C34.692 30.915 34.806 31.194 35.034 31.362C35.268 31.53 35.571 31.614 35.943 31.614C36.399 31.614 36.792 31.533 37.122 31.371C37.458 31.203 37.785 30.951 38.103 30.615V29.058ZM33.009 25.053C34.071 24.081 35.349 23.595 36.843 23.595C37.383 23.595 37.866 23.685 38.292 23.865C38.718 24.039 39.078 24.285 39.372 24.603C39.666 24.915 39.888 25.29 40.038 25.728C40.194 26.166 40.272 26.646 40.272 27.168V33H39.264C39.054 33 38.892 32.97 38.778 32.91C38.664 32.844 38.574 32.715 38.508 32.523L38.31 31.857C38.076 32.067 37.848 32.253 37.626 32.415C37.404 32.571 37.173 32.703 36.933 32.811C36.693 32.919 36.435 33 36.159 33.054C35.889 33.114 35.589 33.144 35.259 33.144C34.869 33.144 34.509 33.093 34.179 32.991C33.849 32.883 33.564 32.724 33.324 32.514C33.084 32.304 32.898 32.043 32.766 31.731C32.634 31.419 32.568 31.056 32.568 30.642C32.568 30.408 32.607 30.177 32.685 29.949C32.763 29.715 32.889 29.493 33.063 29.283C33.243 29.073 33.474 28.875 33.756 28.689C34.038 28.503 34.383 28.341 34.791 28.203C35.205 28.065 35.685 27.954 36.231 27.87C36.777 27.78 37.401 27.726 38.103 27.708V27.168C38.103 26.55 37.971 26.094 37.707 25.8C37.443 25.5 37.062 25.35 36.564 25.35C36.204 25.35 35.904 25.392 35.664 25.476C35.43 25.56 35.223 25.656 35.043 25.764C34.863 25.866 34.698 25.959 34.548 26.043C34.404 26.127 34.242 26.169 34.062 26.169C33.906 26.169 33.774 26.13 33.666 26.052C33.558 25.968 33.471 25.872 33.405 25.764L33.009 25.053ZM42.3656 33V23.766H43.7246C44.0126 23.766 44.2016 23.901 44.2916 24.171L44.4356 24.855C44.5976 24.675 44.7656 24.51 44.9396 24.36C45.1196 24.21 45.3086 24.081 45.5066 23.973C45.7106 23.865 45.9266 23.781 46.1546 23.721C46.3886 23.655 46.6436 23.622 46.9196 23.622C47.5016 23.622 47.9786 23.781 48.3506 24.099C48.7286 24.411 49.0106 24.828 49.1966 25.35C49.3406 25.044 49.5206 24.783 49.7366 24.567C49.9526 24.345 50.1896 24.165 50.4476 24.027C50.7056 23.889 50.9786 23.787 51.2666 23.721C51.5606 23.655 51.8546 23.622 52.1486 23.622C52.6586 23.622 53.1116 23.7 53.5076 23.856C53.9036 24.012 54.2366 24.24 54.5066 24.54C54.7766 24.84 54.9806 25.206 55.1186 25.638C55.2626 26.07 55.3346 26.565 55.3346 27.123V33H53.1116V27.123C53.1116 26.535 52.9826 26.094 52.7246 25.8C52.4666 25.5 52.0886 25.35 51.5906 25.35C51.3626 25.35 51.1496 25.389 50.9516 25.467C50.7596 25.545 50.5886 25.659 50.4386 25.809C50.2946 25.953 50.1806 26.136 50.0966 26.358C50.0126 26.58 49.9706 26.835 49.9706 27.123V33H47.7386V27.123C47.7386 26.505 47.6126 26.055 47.3606 25.773C47.1146 25.491 46.7516 25.35 46.2716 25.35C45.9476 25.35 45.6446 25.431 45.3626 25.593C45.0866 25.749 44.8286 25.965 44.5886 26.241V33H42.3656ZM61.5336 23.622C62.2176 23.622 62.8386 23.733 63.3966 23.955C63.9606 24.177 64.4406 24.492 64.8366 24.9C65.2386 25.308 65.5476 25.806 65.7636 26.394C65.9796 26.982 66.0876 27.639 66.0876 28.365C66.0876 29.097 65.9796 29.757 65.7636 30.345C65.5476 30.933 65.2386 31.434 64.8366 31.848C64.4406 32.262 63.9606 32.58 63.3966 32.802C62.8386 33.024 62.2176 33.135 61.5336 33.135C60.8436 33.135 60.2166 33.024 59.6526 32.802C59.0886 32.58 58.6056 32.262 58.2036 31.848C57.8076 31.434 57.4986 30.933 57.2766 30.345C57.0606 29.757 56.9526 29.097 56.9526 28.365C56.9526 27.639 57.0606 26.982 57.2766 26.394C57.4986 25.806 57.8076 25.308 58.2036 24.9C58.6056 24.492 59.0886 24.177 59.6526 23.955C60.2166 23.733 60.8436 23.622 61.5336 23.622ZM61.5336 31.425C62.3016 31.425 62.8686 31.167 63.2346 30.651C63.6066 30.135 63.7926 29.379 63.7926 28.383C63.7926 27.387 63.6066 26.628 63.2346 26.106C62.8686 25.584 62.3016 25.323 61.5336 25.323C60.7536 25.323 60.1746 25.587 59.7966 26.115C59.4246 26.637 59.2386 27.393 59.2386 28.383C59.2386 29.373 59.4246 30.129 59.7966 30.651C60.1746 31.167 60.7536 31.425 61.5336 31.425ZM73.4175 25.566C73.3575 25.662 73.2945 25.731 73.2285 25.773C73.1625 25.809 73.0785 25.827 72.9765 25.827C72.8685 25.827 72.7515 25.797 72.6255 25.737C72.5055 25.677 72.3645 25.611 72.2025 25.539C72.0405 25.461 71.8545 25.392 71.6445 25.332C71.4405 25.272 71.1975 25.242 70.9155 25.242C70.4775 25.242 70.1325 25.335 69.8805 25.521C69.6345 25.707 69.5115 25.95 69.5115 26.25C69.5115 26.448 69.5745 26.616 69.7005 26.754C69.8325 26.886 70.0035 27.003 70.2135 27.105C70.4295 27.207 70.6725 27.3 70.9425 27.384C71.2125 27.462 71.4855 27.549 71.7615 27.645C72.0435 27.741 72.3195 27.852 72.5895 27.978C72.8595 28.098 73.0995 28.254 73.3095 28.446C73.5255 28.632 73.6965 28.857 73.8225 29.121C73.9545 29.385 74.0205 29.703 74.0205 30.075C74.0205 30.519 73.9395 30.93 73.7775 31.308C73.6215 31.68 73.3875 32.004 73.0755 32.28C72.7635 32.55 72.3765 32.763 71.9145 32.919C71.4585 33.069 70.9305 33.144 70.3305 33.144C70.0125 33.144 69.7005 33.114 69.3945 33.054C69.0945 33 68.8035 32.922 68.5215 32.82C68.2455 32.718 67.9875 32.598 67.7475 32.46C67.5135 32.322 67.3065 32.172 67.1265 32.01L67.6395 31.164C67.7055 31.062 67.7835 30.984 67.8735 30.93C67.9635 30.876 68.0775 30.849 68.2155 30.849C68.3535 30.849 68.4825 30.888 68.6025 30.966C68.7285 31.044 68.8725 31.128 69.0345 31.218C69.1965 31.308 69.3855 31.392 69.6015 31.47C69.8235 31.548 70.1025 31.587 70.4385 31.587C70.7025 31.587 70.9275 31.557 71.1135 31.497C71.3055 31.431 71.4615 31.347 71.5815 31.245C71.7075 31.143 71.7975 31.026 71.8515 30.894C71.9115 30.756 71.9415 30.615 71.9415 30.471C71.9415 30.255 71.8755 30.078 71.7435 29.94C71.6175 29.802 71.4465 29.682 71.2305 29.58C71.0205 29.478 70.7775 29.388 70.5015 29.31C70.2315 29.226 69.9525 29.136 69.6645 29.04C69.3825 28.944 69.1035 28.833 68.8275 28.707C68.5575 28.575 68.3145 28.41 68.0985 28.212C67.8885 28.014 67.7175 27.771 67.5855 27.483C67.4595 27.195 67.3965 26.847 67.3965 26.439C67.3965 26.061 67.4715 25.701 67.6215 25.359C67.7715 25.017 67.9905 24.72 68.2785 24.468C68.5725 24.21 68.9355 24.006 69.3675 23.856C69.8055 23.7 70.3095 23.622 70.8795 23.622C71.5155 23.622 72.0945 23.727 72.6165 23.937C73.1385 24.147 73.5735 24.423 73.9215 24.765L73.4175 25.566ZM78.1777 19.986V25.134C78.1777 25.68 78.1507 26.217 78.0967 26.745C78.0427 27.267 77.9737 27.822 77.8897 28.41H76.3777C76.2937 27.822 76.2247 27.267 76.1707 26.745C76.1167 26.217 76.0897 25.68 76.0897 25.134V19.986H78.1777ZM75.7387 31.776C75.7387 31.59 75.7717 31.413 75.8377 31.245C75.9097 31.077 76.0057 30.933 76.1257 30.813C76.2517 30.693 76.3987 30.597 76.5667 30.525C76.7347 30.453 76.9147 30.417 77.1067 30.417C77.2927 30.417 77.4697 30.453 77.6377 30.525C77.8057 30.597 77.9497 30.693 78.0697 30.813C78.1957 30.933 78.2947 31.077 78.3667 31.245C78.4387 31.413 78.4747 31.59 78.4747 31.776C78.4747 31.968 78.4387 32.148 78.3667 32.316C78.2947 32.478 78.1957 32.619 78.0697 32.739C77.9497 32.859 77.8057 32.952 77.6377 33.018C77.4697 33.09 77.2927 33.126 77.1067 33.126C76.9147 33.126 76.7347 33.09 76.5667 33.018C76.3987 32.952 76.2517 32.859 76.1257 32.739C76.0057 32.619 75.9097 32.478 75.8377 32.316C75.7717 32.148 75.7387 31.968 75.7387 31.776Z" fill="#F2F4F7"/>
<defs>
<linearGradient id="paint0_linear_57_481" x1="1.37977e-06" y1="46.5" x2="97.5638" y2="26.0616" gradientUnits="userSpaceOnUse">
<stop stop-color="#FC0085"/>
<stop offset="0.533914" stop-color="#009DFF"/>
<stop offset="1" stop-color="#0DFFFC"/>
</linearGradient>
</defs>
</svg>
